<svg width="32" height="32" viewBox="0 0 64 64" xmlns="http://www.w3.org/2000/svg">
<path d="M32 0C14.2222 0 0 14.2222 0 32C0 49.7778 14.2222 64 32 64C49.7778 64 64 49.7778 64 32C64 14.2222 49.7778 0 32 0ZM32 56.8889C18.1333 56.8889 7.11111 45.8667 7.11111 32C7.11111 18.1333 18.1333 7.11111 32 7.11111C45.8667 7.11111 56.8889 18.1333 56.8889 32C56.8889 45.8667 45.8667 56.8889 32 56.8889ZM35.5556 17.7778H28.4444V28.4444H17.7778V35.5556H28.4444V46.2222H35.5556V35.5556H46.2222V28.4444H35.5556V17.7778Z" fill="white"/>
</svg>
