<svg width="32" height="32" viewBox="0 0 32 32" fill="none" xmlns="http://www.w3.org/2000/svg">
<path d="M13.9997 16.6066V20.2426H15.9997C17.1037 20.2426 17.9997 19.4293 17.9997 18.4239C17.9997 17.4199 17.1037 16.6066 15.9997 16.6066H13.9997ZM18.685 14.9533C19.8837 15.7239 20.6663 16.9919 20.6663 18.4253C20.6663 20.7666 18.577 22.6666 15.9997 22.6666H11.333V10.5466C11.333 9.87459 11.9303 9.33325 12.6663 9.33325H15.333C17.5423 9.33325 19.333 10.9613 19.333 12.9693C19.333 13.7026 19.0943 14.3813 18.685 14.9533ZM13.9997 11.7586V14.1826H15.333C16.069 14.1826 16.6663 13.6399 16.6663 12.9706C16.6663 12.3013 16.069 11.7586 15.333 11.7586H13.9997Z" fill="white"/>
</svg>
