<svg width="33" height="33" viewBox="0 0 33 33" xmlns="http://www.w3.org/2000/svg">
<path d="M29.4401 21.6971C29.4401 21.6971 25.885 25.7818 25.885 28.2853C25.885 29.2838 26.2595 30.2414 26.9262 30.9474C27.593 31.6534 28.4972 32.05 29.4401 32.05C30.3829 32.05 31.2872 31.6534 31.9539 30.9474C32.6206 30.2414 32.9951 29.2838 32.9951 28.2853C32.9951 25.7818 29.4401 21.6971 29.4401 21.6971ZM4.9279 18.8736L13.4423 9.85711L21.9567 18.8736M25.1029 16.8783L9.21175 0.0500488L6.70544 2.70417L10.936 7.18417L1.78167 16.8783C0.732931 17.9324 0.732931 19.7583 1.78167 20.8689L11.5581 31.2218C12.0736 31.7677 12.7668 32.05 13.4423 32.05C14.1177 32.05 14.811 31.7677 15.3265 31.2218L25.1029 20.8689C26.1516 19.7583 26.1516 17.9324 25.1029 16.8783Z" fill="white"/>
</svg>
