<svg width="32" height="32" viewBox="0 0 32 32" fill="none" xmlns="http://www.w3.org/2000/svg">
<path d="M18.9706 20.3041L13.3133 14.6468L5.77059 22.1894L8.59992 25.0174C9.35003 25.7673 10.3673 26.1886 11.4279 26.1886C12.4886 26.1886 13.5058 25.7673 14.2559 25.0174L18.9706 20.3041ZM17.0453 26.0001H20.6666C21.0202 26.0001 21.3593 26.1406 21.6094 26.3906C21.8594 26.6407 21.9999 26.9798 21.9999 27.3334C21.9999 27.687 21.8594 28.0262 21.6094 28.2762C21.3593 28.5263 21.0202 28.6668 20.6666 28.6668H5.99992C5.66188 28.6665 5.33657 28.5378 5.0898 28.3068C4.84303 28.0757 4.69323 27.7596 4.6707 27.4223C4.64817 27.085 4.75459 26.7517 4.96844 26.4899C5.18229 26.2281 5.48759 26.0573 5.82259 26.0121L3.88526 24.0748C3.38533 23.5747 3.10449 22.8965 3.10449 22.1894C3.10449 21.4823 3.38533 20.8042 3.88526 20.3041L18.9706 5.21875C19.4707 4.71883 20.1488 4.43799 20.8559 4.43799C21.563 4.43799 22.2412 4.71883 22.7413 5.21875L28.3999 10.8761C28.8998 11.3762 29.1807 12.0543 29.1807 12.7614C29.1807 13.4685 28.8998 14.1467 28.3999 14.6468L17.0453 26.0001Z" fill="white"/>
</svg>
