<svg width="28" height="27" viewBox="0 0 28 27" fill="none" xmlns="http://www.w3.org/2000/svg">
<path d="M18.0003 26.4201V19.7534C18.0003 18.6925 17.5789 17.6751 16.8288 16.925C16.0786 16.1748 15.0612 15.7534 14.0003 15.7534C12.9395 15.7534 11.922 16.1748 11.1719 16.925C10.4218 17.6751 10.0003 18.6925 10.0003 19.7534V26.4201H3.33366C2.62641 26.4201 1.94814 26.1391 1.44804 25.639C0.947944 25.1389 0.666992 24.4606 0.666992 23.7534V9.26274C0.666988 8.80224 0.786233 8.34959 1.01312 7.94887C1.24 7.54814 1.56679 7.213 1.96166 6.97607L12.6283 0.576071C13.0428 0.327402 13.517 0.196045 14.0003 0.196045C14.4836 0.196045 14.9579 0.327402 15.3723 0.576071L26.039 6.97607C26.4339 7.213 26.7607 7.54814 26.9875 7.94887C27.2144 8.34959 27.3337 8.80224 27.3337 9.26274V23.7534C27.3337 24.4606 27.0527 25.1389 26.5526 25.639C26.0525 26.1391 25.3742 26.4201 24.667 26.4201H18.0003Z" fill="white"/>
</svg>
