<svg width="32" height="32" viewBox="0 0 32 32" fill="none" xmlns="http://www.w3.org/2000/svg">
<path d="M13.0307 19.9999L15.6307 11.9999H14C13.6464 11.9999 13.3072 11.8594 13.0572 11.6094C12.8071 11.3593 12.6667 11.0202 12.6667 10.6666C12.6667 10.313 12.8071 9.97382 13.0572 9.72378C13.3072 9.47373 13.6464 9.33325 14 9.33325H20.6667C21.0203 9.33325 21.3594 9.47373 21.6095 9.72378C21.8595 9.97382 22 10.313 22 10.6666C22 11.0202 21.8595 11.3593 21.6095 11.6094C21.3594 11.8594 21.0203 11.9999 20.6667 11.9999H18.4347L15.8347 19.9999H18C18.3536 19.9999 18.6928 20.1404 18.9428 20.3904C19.1929 20.6405 19.3333 20.9796 19.3333 21.3333C19.3333 21.6869 19.1929 22.026 18.9428 22.2761C18.6928 22.5261 18.3536 22.6666 18 22.6666H11.3333C10.9797 22.6666 10.6406 22.5261 10.3905 22.2761C10.1405 22.026 10 21.6869 10 21.3333C10 20.9796 10.1405 20.6405 10.3905 20.3904C10.6406 20.1404 10.9797 19.9999 11.3333 19.9999H13.0307Z" fill="white"/>
</svg>
