<svg width="32" height="32" viewBox="0 0 32 32" fill="none" xmlns="http://www.w3.org/2000/svg">
<path d="M8.2701 20.6377L13.1932 26.0073C12.2747 27.3092 11.1321 28.5309 9.76908 29.6765C7.0283 31.9798 3.77133 32.5706 0 31.449C1.53457 28.9995 3.12903 26.5953 4.78167 24.2388C5.67995 22.963 6.84277 21.7633 8.2701 20.6377ZM11.0054 17.9579C12.0157 16.3757 13.3365 14.7714 14.9622 13.1391C17.2879 10.8058 21.3311 6.88222 27.09 1.36841C28.622 -0.0996714 30.5068 -0.434145 31.4528 0.597316C32.397 1.62678 32.0921 3.68569 30.7474 5.35606C25.6829 11.645 22.0842 16.0512 19.9496 18.5768C18.4543 20.3453 16.9811 21.7813 15.528 22.8889L11.0054 17.9579Z" fill="white"/>
</svg>
