<svg width="34" height="34" viewBox="0 0 34 34" fill="none" xmlns="http://www.w3.org/2000/svg">
<path d="M27.3993 16.8964L27.0647 9.56672C27.0486 9.21346 26.8928 8.88108 26.6316 8.6427C26.3704 8.40432 26.0252 8.27945 25.6719 8.29558L7.02469 9.14698C6.67144 9.16311 6.33906 9.3189 6.10068 9.5801C5.86229 9.84129 5.73743 10.1865 5.75356 10.5397L6.3617 23.8592C6.37783 24.2124 6.53362 24.5448 6.79482 24.7832C7.05601 25.0216 7.4012 25.1465 7.75446 25.1303L12.4216 24.9172L17.8236 14.8978C18.1119 14.3633 18.5181 13.9015 19.0114 13.5474C19.5048 13.1932 20.0722 12.9561 20.6709 12.8539C21.2695 12.7517 21.8835 12.7871 22.4664 12.9575C23.0493 13.1279 23.5857 13.4288 24.035 13.8373L27.3993 16.8964ZM27.571 20.6565L22.2404 15.8093C22.0905 15.6732 21.9117 15.5731 21.7174 15.5164C21.5231 15.4598 21.3184 15.4481 21.119 15.4823C20.9195 15.5165 20.7304 15.5957 20.5661 15.7138C20.4017 15.8319 20.2664 15.9859 20.1704 16.164L15.5277 24.7754L26.4017 24.2789C26.755 24.2628 27.0873 24.107 27.3257 23.8458C27.5641 23.5846 27.689 23.2394 27.6728 22.8862L27.571 20.6565ZM6.90306 6.48309L25.5503 5.63169C26.6101 5.58331 27.6456 5.95789 28.4292 6.67304C29.2128 7.38819 29.6802 8.38533 29.7286 9.44509L30.3367 22.7645C30.3851 23.8243 30.0105 24.8599 29.2954 25.6435C28.5802 26.427 27.5831 26.8944 26.5233 26.9428L7.87608 27.7942C6.81632 27.8426 5.78074 27.468 4.99717 26.7529C4.21359 26.0377 3.74619 25.0406 3.69781 23.9808L3.08967 10.6614C3.04128 9.6016 3.41587 8.56602 4.13102 7.78245C4.84617 6.99887 5.8433 6.53147 6.90306 6.48309ZM11.4462 18.2882C10.3865 18.3365 9.35089 17.962 8.56731 17.2468C7.78373 16.5317 7.31633 15.5345 7.26795 14.4748C7.21956 13.415 7.59414 12.3794 8.30929 11.5958C9.02444 10.8123 10.0216 10.3449 11.0813 10.2965C12.1411 10.2481 13.1767 10.6227 13.9603 11.3378C14.7438 12.053 15.2112 13.0501 15.2596 14.1099C15.308 15.1696 14.9334 16.2052 14.2183 16.9888C13.5031 17.7724 12.506 18.2398 11.4462 18.2882ZM11.3246 15.6243C11.6779 15.6081 12.0102 15.4523 12.2486 15.1911C12.487 14.93 12.6119 14.5848 12.5957 14.2315C12.5796 13.8783 12.4238 13.5459 12.1626 13.3075C11.9014 13.0691 11.5562 12.9442 11.203 12.9604C10.8497 12.9765 10.5173 13.1323 10.279 13.3935C10.0406 13.6547 9.91571 13.9999 9.93184 14.3531C9.94797 14.7064 10.1038 15.0388 10.365 15.2771C10.6262 15.5155 10.9713 15.6404 11.3246 15.6243Z" fill="white"/>
</svg>
