<svg width="32" height="32" viewBox="0 0 64 64" xmlns="http://www.w3.org/2000/svg">
<path d="M62.6609 15.9309L48.0683 1.33903C47.6438 0.914508 47.1399 0.577756 46.5852 0.348004C46.0305 0.118252 45.4361 0 44.8357 0C44.2353 0 43.6408 0.118252 43.0862 0.348004C42.5315 0.577756 42.0276 0.914508 41.6031 1.33903L1.33878 41.6045C0.913422 42.0284 0.576147 42.5322 0.346379 43.087C0.116612 43.6418 -0.00110651 44.2365 7.8381e-06 44.837V59.4288C7.8381e-06 60.6412 0.481637 61.8039 1.33894 62.6611C2.19625 63.5184 3.359 64 4.57141 64H19.164C19.7645 64.0011 20.3593 63.8834 20.9141 63.6536C21.4689 63.4239 21.9727 63.0866 22.3966 62.6613L62.6609 22.3958C63.0854 21.9713 63.4222 21.4674 63.652 20.9128C63.8817 20.3581 64 19.7637 64 19.1633C64 18.563 63.8817 17.9685 63.652 17.4139C63.4222 16.8593 63.0854 16.3553 62.6609 15.9309ZM4.73141 43.7562L33.306 15.1799L39.6765 21.5534L11.102 50.1265L4.73141 43.7562ZM3.91835 59.4288V48.4841L15.5134 60.0819H4.57141C4.39821 60.0819 4.2321 60.0131 4.10963 59.8906C3.98716 59.7681 3.91835 59.602 3.91835 59.4288ZM20.2448 59.2688L13.8742 52.8986L42.4488 24.3222L48.8193 30.6957L20.2448 59.2688ZM59.8887 19.627L51.5916 27.9237L36.0782 12.4111L44.3753 4.11112C44.4359 4.0504 44.508 4.00224 44.5872 3.96937C44.6665 3.93651 44.7515 3.9196 44.8373 3.9196C44.9231 3.9196 45.0081 3.93651 45.0874 3.96937C45.1667 4.00224 45.2387 4.0504 45.2994 4.11112L59.8887 18.7029C59.9494 18.7636 59.9976 18.8356 60.0304 18.9149C60.0633 18.9942 60.0802 19.0791 60.0802 19.165C60.0802 19.2508 60.0633 19.3358 60.0304 19.415C59.9976 19.4943 59.9494 19.5663 59.8887 19.627Z" fill="white"/>
</svg>
