<svg width="32" height="32" viewBox="0 0 32 32" fill="none" xmlns="http://www.w3.org/2000/svg">
<path d="M28.126 11.584L29.3574 9.5584C29.4632 9.38583 29.5991 9.23808 29.7572 9.1237C29.9152 9.00932 30.0924 8.93058 30.2783 8.89204C30.4642 8.85349 30.6552 8.85592 30.8402 8.89917C31.0253 8.94242 31.2007 9.02564 31.3563 9.144C32.0192 9.64 32.1995 10.632 31.759 11.3568L28.5665 16.608C28.4607 16.7806 28.3248 16.9283 28.1667 17.0427C28.0087 17.1571 27.8316 17.2358 27.6456 17.2744C27.4597 17.3129 27.2687 17.3105 27.0837 17.2672C26.8986 17.224 26.7232 17.1408 26.5676 17.0224L21.7629 13.4288C21.4447 13.1929 21.224 12.8283 21.1486 12.4143C21.0732 12.0003 21.1492 11.5703 21.3602 11.2176C21.4659 11.0449 21.6017 10.897 21.7597 10.7825C21.9178 10.6679 22.0949 10.589 22.2808 10.5503C22.4667 10.5117 22.6577 10.5139 22.8428 10.5571C23.0279 10.6002 23.2034 10.6833 23.3591 10.8016L25.313 12.2656C23.8825 7.0176 19.5096 3.2 14.3385 3.2C8.00444 3.2 2.86828 8.9312 2.86828 16C2.86828 23.0688 8.00444 28.8 14.3385 28.8C15.1308 28.8 15.7734 29.5168 15.7734 30.4C15.7734 31.2832 15.1308 32 14.3385 32C6.41984 32 0 24.8368 0 16C0 7.1632 6.41984 0 14.3385 0C20.8863 0 26.4077 4.896 28.126 11.584Z" fill="white"/>
</svg>
