<svg width="32" height="32" viewBox="0 0 32 32" fill="none" xmlns="http://www.w3.org/2000/svg">
<g clip-path="url(#clip0_957_65)">
<path d="M8 16C3.57812 16 0 19.5781 0 24C0 28.4219 3.57812 32 8 32C12.4219 32 16 28.4219 16 24C16 19.5781 12.425 16 8 16ZM12.0625 14H23.8813C25.4644 14 26.4575 12.3319 25.6656 10.9987L19.7875 0.998125C19.4125 0.382812 18.7312 0 18 0C17.2688 0 16.5906 0.382812 16.2156 0.998125L10.2812 10.9438C9.4875 12.3313 10.4813 14 12.0625 14ZM30 17H20C18.8987 17 18 17.8987 18 19V29C18 30.1013 18.8987 31 20 31H30C31.1013 31 32 30.1013 32 29V19C32 17.9 31.1 17 30 17Z" fill="white"/>
</g>
<defs>
<clipPath id="clip0_957_65">
<rect width="32" height="32" fill="white"/>
</clipPath>
</defs>
</svg>
