<svg width="32" height="32" viewBox="0 0 32 32" fill="none" xmlns="http://www.w3.org/2000/svg">
<path d="M8.00033 5.33341C7.29308 5.33341 6.6148 5.61437 6.11471 6.11446C5.61461 6.61456 5.33366 7.29284 5.33366 8.00008V24.0001C5.33366 24.7073 5.61461 25.3856 6.11471 25.8857C6.6148 26.3858 7.29308 26.6667 8.00033 26.6667H24.0003C24.7076 26.6667 25.3858 26.3858 25.8859 25.8857C26.386 25.3856 26.667 24.7073 26.667 24.0001V8.00008C26.667 7.29284 26.386 6.61456 25.8859 6.11446C25.3858 5.61437 24.7076 5.33341 24.0003 5.33341H8.00033ZM8.00033 2.66675H24.0003C25.4148 2.66675 26.7714 3.22865 27.7716 4.22885C28.7718 5.22904 29.3337 6.58559 29.3337 8.00008V24.0001C29.3337 25.4146 28.7718 26.7711 27.7716 27.7713C26.7714 28.7715 25.4148 29.3334 24.0003 29.3334H8.00033C6.58584 29.3334 5.22928 28.7715 4.22909 27.7713C3.2289 26.7711 2.66699 25.4146 2.66699 24.0001V8.00008C2.66699 6.58559 3.2289 5.22904 4.22909 4.22885C5.22928 3.22865 6.58584 2.66675 8.00033 2.66675Z" fill="white"/>
</svg>
