<svg width="16" height="12" viewBox="0 0 16 12" fill="none" xmlns="http://www.w3.org/2000/svg">
<path d="M8.43628 9.33827H3.56295L2.92695 11.0796C2.67228 11.7783 1.82562 12.1623 1.03762 11.9356C0.250949 11.7089 -0.182384 10.9569 0.0736157 10.2583L3.14562 1.84227C3.65762 0.444933 5.34828 -0.323067 6.92428 0.130266C7.84028 0.394266 8.55762 1.0316 8.85362 1.84227L11.9269 10.2583C12.1816 10.9569 11.7496 11.7089 10.9616 11.9356C10.1749 12.1623 9.32828 11.7783 9.07228 11.0796L8.43628 9.33827ZM7.46428 6.67427L6.00028 2.6636L4.53362 6.67427H7.46428ZM13.3336 5.3516C12.6264 5.3516 11.9481 5.07065 11.448 4.57055C10.9479 4.07045 10.6669 3.39218 10.6669 2.68493C10.6669 1.97769 10.9479 1.29941 11.448 0.799315C11.9481 0.299218 12.6264 0.0182662 13.3336 0.0182662C14.0409 0.0182662 14.7191 0.299218 15.2192 0.799315C15.7193 1.29941 16.0003 1.97769 16.0003 2.68493C16.0003 3.39218 15.7193 4.07045 15.2192 4.57055C14.7191 5.07065 14.0409 5.3516 13.3336 5.3516Z" fill="white"/>
</svg>
