<svg width="32" height="32" viewBox="0 0 32 32" fill="none" xmlns="http://www.w3.org/2000/svg">
<path d="M24 9.33333V12C24 12.7364 23.403 13.3333 22.6667 13.3333C21.9303 13.3333 21.3333 12.7364 21.3333 12V10.6667H17.3333V21.3333H18.6667C19.403 21.3333 20 21.9303 20 22.6667C20 23.403 19.403 24 18.6667 24H13.3333C12.597 24 12 23.403 12 22.6667C12 21.9303 12.597 21.3333 13.3333 21.3333H14.6667V10.6667H10.6667V12C10.6667 12.7364 10.0697 13.3333 9.33333 13.3333C8.59695 13.3333 8 12.7364 8 12V9.33333C8 8.59695 8.59695 8 9.33333 8H22.6667C23.403 8 24 8.59695 24 9.33333Z" fill="white"/>
</svg>
