<svg width="32" height="32" viewBox="0 0 32 32" fill="none" xmlns="http://www.w3.org/2000/svg">
<path d="M6.64854 12.1792L8.6151 10.7024C8.77144 10.585 8.94745 10.503 9.13288 10.4611C9.31831 10.4193 9.50945 10.4184 9.69518 10.4586C9.88091 10.4989 10.0575 10.5793 10.2147 10.6953C10.3719 10.8113 10.5065 10.9606 10.6108 11.1344C10.8239 11.4864 10.9027 11.9165 10.8304 12.3319C10.758 12.7473 10.5402 13.1148 10.2238 13.3552L5.45726 16.9344C5.30093 17.0518 5.12492 17.1338 4.93949 17.1757C4.75406 17.2175 4.56292 17.2184 4.37719 17.1782C4.19146 17.1379 4.01485 17.0575 3.85767 16.9415C3.70048 16.8255 3.56585 16.6762 3.46161 16.5024L0.247044 11.1968C0.0330944 10.8448 -0.0462595 10.4142 0.0261477 9.99832C0.098555 9.58241 0.316902 9.21458 0.633955 8.9744C0.790289 8.857 0.966296 8.77498 1.15173 8.73314C1.33716 8.69129 1.5283 8.69044 1.71403 8.73065C1.89976 8.77085 2.07636 8.8513 2.23355 8.96732C2.39074 9.08333 2.52537 9.23259 2.62961 9.4064L3.84998 11.4208C5.61872 4.816 11.1169 0 17.6261 0C25.565 0 32 7.1632 32 16C32 24.8368 25.565 32 17.6261 32C17.4362 31.9987 17.2484 31.9564 17.0734 31.8753C16.8985 31.7942 16.7397 31.676 16.6063 31.5274C16.4728 31.3788 16.3673 31.2028 16.2957 31.0094C16.2241 30.8159 16.1878 30.6089 16.189 30.4C16.189 29.5168 16.8333 28.8 17.6261 28.8C23.9767 28.8 29.1258 23.0688 29.1258 16C29.1258 8.9312 23.9767 3.2 17.6261 3.2C12.4711 3.2 8.10892 6.976 6.64854 12.1792Z" fill="white"/>
</svg>
